PathFileType	4	(X/Y/Z)	D:\TRACE\spotREDO_2-26-24\spot_justArm_Motion_2_5-v60.trc
DataRate	CameraRate	NumFrames	NumMarkers	Units	OrigDataRate	OrigDataStartFrame	OrigNumFrames
100.00	100.00	      21	9	mm	100.00	876	      7000
Frame#	Time	front left toe			Front right toe			aft left toe			aft right toe			Arm			FL body			FR body			AL Body			AR Body			
		X1	Y1	Z1	X2	Y2	Z2	X3	Y3	Z3	X4	Y4	Z4	X5	Y5	Z5	X6	Y6	Z6	X7	Y7	Z7	X8	Y8	Z8	X9	Y9	Z9	

876	8.750	-300.26678	4.30799	-138.30302	124.10927	7.02959	-144.07550	-336.72363	60.28749	454.18335	90.88879	63.62191	430.18469	-89.22288	664.15411	-827.13940	-172.97588	536.54510	-213.56606	-17.10519	540.77844	-206.36295	-223.28407	599.54028	666.43036	-75.43408	600.08661	675.60303	
877	8.760	-299.32364	4.11570	-138.44347	124.49112	6.73813	-144.36205	-335.78922	60.02191	454.12131	91.35191	63.28706	430.15689	-91.82800	659.40271	-826.51129	-171.77612	536.47076	-213.75337	-16.22146	540.64130	-206.48303	-223.34161	599.97485	666.06958	-75.75789	600.57159	675.37390	
878	8.770	-298.54758	4.08578	-138.55518	125.86674	6.62570	-144.12801	-335.07663	59.70364	454.05722	91.71294	62.94934	430.03485	-95.16241	654.49725	-826.12347	-171.07285	536.36133	-214.09833	-15.24002	540.40338	-206.77631	-223.32756	600.78516	665.41937	-75.51968	600.88013	675.34607	
879	8.780	-297.68591	4.26635	-138.43704	126.75098	6.57212	-144.18860	-334.31497	59.66905	454.05109	92.99706	62.88262	430.07352	-98.36785	648.96729	-825.67432	-170.14186	536.10052	-214.39096	-12.53889	540.57874	-207.21719	-222.96475	601.54816	665.31171	-74.84789	601.78516	675.09338	
880	8.790	-296.77341	4.28156	-138.32025	127.63049	6.49490	-144.30840	-333.17792	59.12806	454.07977	93.83447	62.98919	430.14404	-100.31768	643.24304	-824.66376	-169.36755	535.71625	-214.74593	-13.54200	539.39728	-206.92407	-222.34026	602.38544	664.87927	-74.57387	602.48444	674.75641	
881	8.800	-295.91031	4.21069	-138.02646	128.17320	6.33472	-144.44762	-332.45395	59.23378	454.11426	94.11406	62.51410	430.14951	-105.04607	637.21777	-824.99078	-168.76630	535.12543	-214.83704	-12.48153	538.86237	-206.90215	-221.32378	603.30939	664.65991	-73.66861	603.57324	674.65234	
882	8.810	-295.31821	4.23107	-138.06923	129.19351	6.63762	-144.13382	-331.47379	58.75274	454.32809	95.41278	62.08095	430.06400	-108.54106	631.46246	-824.97815	-168.15210	534.36194	-214.88928	-12.30714	537.80493	-207.14598	-220.49649	604.57605	664.30682	-72.49291	604.77509	674.32391	
883	8.820	-294.61176	4.44095	-137.93402	130.02666	6.86234	-143.90111	-330.46060	58.66425	454.10651	96.63062	62.06829	430.01483	-111.72697	626.46417	-824.60815	-167.99603	533.09406	-214.99303	-12.14324	537.16180	-207.76404	-218.96420	605.81616	664.05927	-71.47511	606.12396	673.65985	
884	8.830	-293.74716	4.16596	-137.55031	130.83351	7.07947	-144.07602	-329.59570	58.64392	454.43881	97.02449	61.58381	429.77286	-114.36001	621.35620	-824.57007	-167.96582	532.20233	-215.06110	-12.26461	535.96558	-208.22968	-217.15350	608.23889	665.17548	-70.07253	607.49469	673.22089	
885	8.840	-292.96658	3.85404	-137.13266	131.49294	7.32384	-144.20993	-328.22818	58.36000	454.61209	98.58820	61.19974	429.77637	-116.39054	617.11609	-824.47632	-168.28159	530.61823	-215.04805	-12.48943	534.71527	-208.53055	-215.42137	609.38177	664.64044	-68.24353	608.88727	672.74829	
886	8.850	-292.18643	3.87748	-136.89888	132.08548	7.71306	-144.29665	-327.31012	58.30577	454.80173	99.48516	60.89430	429.52939	-117.81864	613.44977	-824.71295	-168.69817	529.56995	-215.02748	-12.95302	533.38550	-208.64464	-213.79037	610.77209	664.44739	-66.34689	610.30426	672.20569	
887	8.860	-291.69775	3.91948	-136.66246	132.35646	7.93384	-144.27980	-326.14319	57.87901	454.75607	101.02853	60.71883	429.49594	-118.79114	610.44403	-824.41907	-169.04518	528.23425	-214.99843	-13.38791	531.80402	-208.88374	-211.95395	611.98743	664.33728	-64.33865	611.41797	671.86639	
888	8.870	-290.93762	3.79467	-136.37007	133.24483	8.23044	-144.21803	-325.15378	57.86566	455.01852	101.62109	59.98044	429.33517	-119.10506	608.24896	-824.50061	-169.64345	526.74152	-214.89346	-13.84275	531.02911	-209.47626	-210.68343	612.55359	663.57092	-62.77844	612.71332	671.39929	
889	8.880	-290.07385	3.70606	-135.97139	134.53362	8.59410	-144.21263	-324.12628	57.53191	455.09692	102.75043	59.75770	429.42084	-118.65611	606.94275	-824.60272	-170.02664	525.47845	-214.77234	-14.16390	529.67957	-209.77869	-208.56490	614.10529	664.16760	-61.08257	613.75348	670.99133	
890	8.890	-289.31677	3.85707	-135.71101	135.18585	8.73911	-144.38800	-323.03876	57.05360	455.41599	103.86069	59.23302	429.35669	-117.53725	606.25421	-824.85559	-170.26953	524.45782	-214.57864	-14.47372	528.79474	-210.07744	-207.37166	614.90765	664.19348	-59.54359	614.74426	670.72046	
891	8.900	-288.37863	4.11687	-135.83623	135.74997	9.01759	-144.49121	-321.82672	56.52369	455.68893	104.60197	58.68383	429.29968	-115.76905	605.97577	-824.68988	-170.62468	523.50641	-214.44612	-14.52657	527.96008	-210.21390	-206.14415	614.79425	663.65411	-58.49276	615.34045	670.53418	
892	8.910	-287.17374	4.24320	-135.10461	137.11015	9.41152	-144.22813	-320.59592	55.82354	456.39322	106.09675	58.59557	429.48648	-113.71429	606.43506	-824.81329	-170.40431	522.74896	-214.37030	-14.84438	527.32275	-210.44386	-205.22176	615.04425	663.78217	-57.28180	615.60114	670.39417	
893	8.920	-286.21487	4.20273	-134.88652	138.17250	9.53155	-143.89203	-319.98370	55.59124	455.94077	107.01393	58.06591	429.53452	-111.26817	607.38989	-824.79510	-170.07793	522.32117	-214.21626	-14.45152	526.69452	-210.36053	-204.57790	615.10620	663.73566	-56.68455	615.61591	670.30145	
894	8.930	-285.28473	4.34768	-134.75510	138.86205	9.61667	-143.88634	-319.07608	54.94419	456.23306	107.94375	57.77006	429.73407	-108.28919	608.24725	-825.01398	-169.81770	522.14850	-214.26544	-13.99416	526.41620	-210.26451	-203.95551	615.03650	663.78308	-56.23051	615.52148	670.23853	
895	8.940	-284.26459	4.86125	-134.83394	140.37753	10.12131	-143.57098	-318.38049	54.23833	456.54590	108.82544	57.49546	429.85791	-105.27471	610.00464	-824.96509	-169.31757	522.07129	-214.38330	-13.37469	526.27136	-210.24411	-203.53383	615.49152	664.34308	-55.85664	615.18323	670.26807	
896	8.950	-283.12009	5.26205	-134.56473	141.48607	10.71400	-142.93835	-317.56039	53.46407	456.61603	109.24127	56.69596	430.15549	-102.42423	611.64185	-825.23798	-168.28575	522.04260	-214.30232	-11.86411	526.29980	-210.04886	-203.51202	615.00800	664.39838	-55.80146	614.86005	670.51837	
